# xmcd
#
# Track frame offsets: 
#        150
#        13302
#        36405
#        55747
#        81012
#        100547
#        116622
#        138357
#        157060
#        182650
#        203737
#        221712
#        235345
#        252970
#
# Disc length: 3813 seconds
#
# Revision: 5
# Processed by: cddbd v1.5.2PL0 Copyright (c) Steve Scherf et al.
# Submitted via: ExactAudioCopy v0.95b4
#
DISCID=c10ee30e
DTITLE=Nujabes - Modal Soul
DYEAR=2005
DGENRE=Hip Hop
TTITLE0=Feather (featuring Cise Starr&Akin from CYNE)
TTITLE1=ordinary joe (featuring Terry Callier)
TTITLE2=reflection eternal
TTITLE3=Luv(sic.)pt3 (Featuring Shing02)
TTITLE4=Music is mine
TTITLE5=Eclipse (feat. Substantial)
TTITLE6=The Sign (feat. Pase Rock)
TTITLE7=Thank you (featuring Apani B)
TTITLE8=World's end Rhapsody
TTITLE9=Modal Soul (featuring Uyama Hiroto)
TTITLE10=flowers
TTITLE11=sea of cloud
TTITLE12=Light on the land
TTITLE13=Horizon
EXTD=
EXTT0=
EXTT1=
EXTT2=
EXTT3=
EXTT4=
EXTT5=
EXTT6=
EXTT7=
EXTT8=
EXTT9=
EXTT10=
EXTT11=
EXTT12=
EXTT13=
PLAYORDER=
